<svg xmlns="http://www.w3.org/2000/svg" xmlns:xlink="http://www.w3.org/1999/xlink" version="1.1" x="0px" y="0px" viewBox="0 0 90 112.5" enable-background="new 0 0 90 90" xml:space="preserve"><g><g><path fill="#000000" d="M42.033,42.164c1.632,0.946,4.301,0.946,5.933-0.001l29.815-17.302c1.632-0.947,1.63-2.493-0.004-3.437    L47.97,4.214c-1.633-0.943-4.306-0.943-5.94,0L12.214,21.429c-1.634,0.943-1.635,2.489-0.003,3.436L42.033,42.164z"/></g><g><path fill="#000000" d="M43.714,49.542c0-1.887-1.335-4.204-2.967-5.151l-29.908-17.35c-1.632-0.947-2.967-0.178-2.967,1.708    v34.628c0,1.887,1.336,4.201,2.97,5.145l29.901,17.263c1.634,0.943,2.97,0.172,2.97-1.715V49.542z"/></g><g><path fill="#000000" d="M49.253,44.391c-1.632,0.947-2.967,3.265-2.967,5.151V84.07c0,1.887,1.337,2.658,2.971,1.715    l29.899-17.263c1.634-0.943,2.971-3.258,2.971-5.145V28.742c0-1.886-1.335-2.655-2.967-1.708L49.253,44.391z"/></g></g><text x="0" y="105" fill="#000000" font-size="5px" font-weight="bold" font-family="'Helvetica Neue', Helvetica, Arial-Unicode, Arial, Sans-serif">Created by José Manuel de Laá</text><text x="0" y="110" fill="#000000" font-size="5px" font-weight="bold" font-family="'Helvetica Neue', Helvetica, Arial-Unicode, Arial, Sans-serif">from the Noun Project</text></svg>